<?xml version="1.0" encoding="utf-8"?>
<!-- Generator: Adobe Illustrator 22.1.0, SVG Export Plug-In . SVG Version: 6.00 Build 0)  -->
<svg version="1.1" id="Layer_1" xmlns="http://www.w3.org/2000/svg" xmlns:xlink="http://www.w3.org/1999/xlink" x="0px" y="0px"
	 viewBox="0 0 500 500" style="enable-background:new 0 0 500 500;" xml:space="preserve">
<style type="text/css">
	.st0{fill:#1E1209;}
</style>
<path class="st0" d="M486.1,104.9c0,36.1-10.1,66.7-26.1,95.5c-20.6,37.5-45.3,72.7-71.9,106c-41.7,53-84.2,105.1-129.1,155
	c-8.7,9.6-18.3,19.2-27.9,28.3c-8.2,7.8-11.9,6.9-18.3-2.3c-15.6-20.6-30.7-41.6-45.3-63.1C125.3,363.6,85.5,301,50.3,235.6
	c-15.6-28.8-27-58.5-34.8-90c-7.8-32.5-6.9-65.4,7.8-96c10.1-21,25.2-37,49-42.5c14.6-3.2,28.8-0.5,42.1,4.1
	c30.7,10.1,55.8,29.7,77.8,53c15.1,16,27.9,33.4,39.4,52.1c0.9,1.8,2.3,3.7,3.2,5c3.2,5,4.1,5,7.8,0c12.8-16.5,26.5-31.5,40.7-47.1
	c15.1-16.5,31.6-30.6,50.4-43c26.5-17.4,55.8-22.9,86.1-17.4c30.2,5,56.8,27,62.7,61.7C484.7,86.1,486.5,96.6,486.1,104.9z
	 M199,129.6c-0.5-4.1-2.7-6.4-5.5-8.7c-9.6-14.2-21.1-27.4-33.4-39.8c-11.4-11.4-23.8-21.5-38.5-27.9c-7.8-3.2-15.6-7.3-24.3-4.6
	c5,1.4,10.5,1.4,15.6,3.7c12.8,6.4,25.2,12.8,35.7,23.3c12.8,12.8,25.6,26.1,38,39.8c1.8,2.3,2.7,6.9,7.3,5.5
	C192.2,125.9,196.3,127.3,199,129.6c0.9,3.7,2.3,6.9,6.4,8.2c0,4.1,2.7,6.4,6,8.2c0.5,2.7,1.4,5.5,5.5,6.9c-1.8-3.7-3.2-5.9-6-6.9
	c-0.9-3.7-1.8-7.3-6.4-8.2C205.4,133.7,202.7,130.9,199,129.6z M53,189.4c-1.8,3.7-1.4,6.9,2.3,11C55.8,195.4,52.1,192.6,53,189.4
	c-5.5-12.3-8.2-25.6-10.5-39.3c-4.1-22.4-6-44.3,0.9-66.3c9.2-28.3,23.8-50.7,56.3-56.2c-16-4.6-30.7-3.2-43.5,8.7
	C41.1,50.5,33.8,68.3,31,88.4c-2.3,20.6-1.4,40.7,4.6,60.8c3.7,13.3,7.8,26.1,12.8,38.4C49.4,189.4,50.7,190.8,53,189.4z M73.6,88.4
	c-4.6,5-5,10.1-5.5,15.1c-1.8,19.7,1.4,38.9,6.4,57.6c5.5,21.9,13.7,43.4,22.9,64.4c19.7,44.3,41.2,88.2,71.4,126.6
	c1.8,2.3,2.7,5.5,6.9,6.4c1.4-3.2,2.7-6.4,4.1-9.1c4.1-8.2,3.2-15.1-1.4-23.3c-20.6-36.6-41.7-72.7-59-110.6
	c-11-24.2-22.4-48-31.6-73.1C81.4,125,76.4,107.6,73.6,88.4z M98.3,72.4c-3.7,0.5-4.1,3.2-4.6,5.5c-1.4,8.2-0.9,16,0.9,24.2
	c6.9,28.8,18.8,55.3,30.2,82.3c14.2,32.5,31.1,63.5,48.1,94.6c5.5,10.1,11,19.7,16.5,29.3c0.9,1.8,2.7,5.5,5,2.7
	c2.7-3.7,4.1-8.7,6-12.8c1.4-2.7-0.5-5-1.8-7.8c-6.9-13.7-13.3-27.4-20.1-41.1c-18.3-37.5-35.2-75.9-49-115.2
	c-4.1-11-9.2-22.4-0.9-34.3c1.4-1.8,0-3.2-0.9-4.6c-7.3-8.2-15.1-16.5-25.6-21.5C100.6,72.9,99.2,72.4,98.3,72.4z M371.2,161.1
	c-3.2,0.9-3.7,2.7-4.6,4.1c-28.4,46.2-59.1,91.4-94.8,132.6c-9.2,10.5-15.1,22.4-22,33.8c-5.5,9.1-2.3,16,1.8,23.8
	c1.8,3.2,4.1,3.7,6.4,0.9c4.1-5.5,8.2-11,11.9-16.5c28.4-40.2,55.8-81.4,78.3-125.2C357,197.7,364.7,180.3,371.2,161.1z
	 M143.7,118.1c18.3,53,41.2,102.8,66.4,152.2c3.7-3.2,3.7-6.9,5.5-9.6c6.9-10.1,7.8-19.7,0-29.7c-0.9-0.9-1.4-2.3-1.8-3.7
	c-15.1-35.7-34.8-68.1-58.1-98.7C152.8,125,150.1,120.9,143.7,118.1z M366.1,122.2c-3.7,1.4-5.5,3.7-8.2,5.5
	c-17.4,15.1-33.4,32-48.5,49.8c-30.7,35.7-56.8,74.5-78.3,116.6c-5.5,11-5.5,11,1.4,19.2c7.8-5.9,12.8-14.2,16.9-22.4
	c30.2-58.5,64.1-114.3,112.1-160.4C364.3,128.6,367,126.8,366.1,122.2z M440.3,106.2c1.8-0.5,1.8-1.4,1.8-2.3
	c-0.5-5-0.5-10.1-1.4-15.1c-3.2-19.7-17.9-32.5-37.5-33.4c-10.5-0.5-20.1,0.9-30.2,4.6c-16.5,5.9-31.1,14.6-44.4,26.1
	c3.7,1.4,5.5-0.5,7.3-1.4c13.3-5.9,27.5-10.1,42.1-10.5c25.6-0.9,47.6,6.9,60.4,31.1C438.9,105.3,439.8,105.8,440.3,106.2z
	 M283.7,381.9c4.1,0,5.5-2.7,7.3-5c32.5-37.9,61.8-78.2,88.8-120.7c18.3-28.3,33.9-58.1,43-91c4.1-14.6,6.9-29.3,2.3-44.3
	c-1.8-5.9-3.2-12.3-9.6-16c-1.4,2.7-0.5,5,0,7.3c0.5,2.3,0.9,4.6,0.9,6.9c2.3,33.4-4.1,64.9-18.8,95.1
	c-21.1,43.9-50.4,82.7-79.2,121.6C306.6,351.7,295.2,366.8,283.7,381.9z M433,205.4c5.5-3.7,7.8-9.1,10.5-14.6
	c18.8-32.9,27-68.1,22-106c-3.7-25.6-16-44.3-47.1-51.7c-20.1-5-39.4-1.4-58.1,5.9C344.6,45,331.3,54.6,319,66.5
	c0.9,0.5,1.4,0.9,1.8,0.5c4.1-2.7,8.2-5.9,12.8-8.7c22.9-15.1,47.1-24.2,75.1-21c17.4,1.8,31.6,10.1,41.7,24.7
	c7.8,11.9,10.5,25.6,11,39.8c1.4,28.8-5.5,55.8-17.9,81.8C439.8,190.8,436.6,198.1,433,205.4z M197.7,359.5c-5,4.1-4.6,9.1-6.4,12.8
	c-2.3,4.1-1.8,7.3,1.4,11c6.4,7.8,12.8,16,21.5,21.5c2.3,1.4,4.1,3.7,4.6,6.4c0.5,3.7,0,6.9-3.2,9.1c-4.1,2.7-8.7,2.3-12.8,0
	c-2.7-1.4-4.6-4.1-9.6-5.5c6,8.2,11,15.1,15.6,22.4c2.3,3.7,5,3.2,7.3,0.5c5-6.4,10.1-12.8,15.6-18.7c2.7-2.7,2.3-4.6,0.5-7.8
	c-7.3-10.1-14.2-20.6-21.1-31.1C205.9,373.6,202.2,366.8,197.7,359.5z M324.9,292.3c0.5,0.5,1.4,0.5,1.8,0.9
	c7.3-10.1,14.2-20.6,21.5-30.6c16.5-24.2,31.1-49.4,40.7-77.2c3.7-9.6,7.3-19.2,5-30.2C378,204.1,351.9,248.4,324.9,292.3z
	 M260.8,380.5c-14.2,1.8-19.7-6.4-25.2-14.6c-5.5,9.1-6,9.6-4.1,12.3c3.7,5.9,7.8,11.9,11.9,17.8c2.3,3.2,4.6,2.7,6.4,0
	C253.1,391,255.8,386.9,260.8,380.5z M397.7,127.7c-1.4-9.6-2.3-17.8-3.2-26.1c-0.5-1.8-0.9-3.7-3.2-5c-7.3-4.1-14.2-5.9-22.4-2.7
	c0.5,0.9,0.5,0.9,0.9,1.4c1.4,0.5,3.2,0.9,4.6,1.4c12.4,2.7,15.6,6.9,14.2,19.7c-0.5,1.8,0,3.2,1.4,4.1
	C392.7,122.2,394.5,124.5,397.7,127.7z M220.1,350.8c0.5-1.4,0-2.3-1.4-2.3c-1.8,0-3.2,0.5-3.7,2.3c0,0.5,0.9,1.8,1.4,2.3
	C218.7,354,219.6,352.6,220.1,350.8z"/>
</svg>
