<?xml version="1.0" encoding="utf-8"?>
<!-- Generator: Adobe Illustrator 22.1.0, SVG Export Plug-In . SVG Version: 6.00 Build 0)  -->
<svg version="1.1" id="Layer_1" xmlns="http://www.w3.org/2000/svg" xmlns:xlink="http://www.w3.org/1999/xlink" x="0px" y="0px"
	 viewBox="0 0 500 500" style="enable-background:new 0 0 500 500;" xml:space="preserve">
<style type="text/css">
	.st0{fill:#FFFDFD;}
	.st1{fill:none;stroke:#FFFFFF;stroke-width:9;stroke-miterlimit:10;}
</style>
<g>
	<path class="st0" d="M250,4.3C114.3,4.3,4.3,114.3,4.3,250s110,245.7,245.7,245.7s245.7-110,245.7-245.7S385.7,4.3,250,4.3z
		 M251.6,481.3C123.9,481.3,20.3,377.7,20.3,250S123.9,18.7,251.6,18.7S482.9,122.3,482.9,250S379.3,481.3,251.6,481.3z"/>
	<path class="st1" d="M379.5,152.4c12.2-10.4,21.9-21.4,25.6-36.8c-11,4.6-21.4,9.3-32,13.1c-4.2,1.5-8.9,4.4-13.6-0.4
		c-9.4-9.8-20.8-15.8-33.8-18.3c-22.6-4.2-42.6,1.6-59.4,18.4C251,143.7,243.8,162.6,245,185c0.2,4.1,0,8.1,0,12.6
		c0,0-1.6-0.1-4.5-0.4c-27-2.8-51.5-10.5-73.6-22.8c-16.6-8.8-33.3-20.8-47.5-37.3c-2.4-2.6-9.9-12.8-11.3-14.9
		c0,0-5.2,6.7-8.6,17.9C94,162.7,98,183.8,111.4,203c3.7,5.4,8.9,9.6,13.5,14.3c-0.3,0.6-0.6,1.1-0.9,1.7
		c-8.9-2.6-17.8-5.2-26.6-7.8c-2.2,23.9,13.5,58.1,50,71.8c-8.6,0.4-17.1,0.8-26.6,1.3c11,29.9,31.6,45.6,61.7,49.7
		c-28,22.4-58.5,31.6-92,30.5v0c0,0,111.3,66.5,209.3-5.1c16.3-12.3,71.5-62,81.3-156.1c-0.4-1.3,2.1-19.9,2.5-27.8
		c0,0,15.7-10.2,29.9-30.2C402,147.2,391.9,152.8,379.5,152.4z"/>
</g>
</svg>
